<svg width="12" height="12" viewBox="0 0 12 12" fill="none" xmlns="http://www.w3.org/2000/svg">
<path d="M11.0818 2.24351C11.4479 1.87739 11.4479 1.2838 11.0818 0.917684C10.7157 0.551568 10.1221 0.551568 9.756 0.917684L5.9995 4.67418L2.243 0.917685C1.87689 0.551569 1.28329 0.551568 0.917177 0.917685C0.551061 1.2838 0.551061 1.87739 0.917177 2.24351L4.67368 6.00001L0.917165 9.75652C0.551049 10.1226 0.551049 10.7162 0.917165 11.0823C1.28328 11.4485 1.87687 11.4485 2.24299 11.0823L5.9995 7.32583L9.75601 11.0823C10.1221 11.4485 10.7157 11.4485 11.0818 11.0823C11.448 10.7162 11.448 10.1226 11.0818 9.75652L7.32533 6.00001L11.0818 2.24351Z" fill="black"/>
</svg>
