<svg
  width="40"
  height="43"
  viewBox="0 0 40 43"
  fill="none"
  xmlns="http://www.w3.org/2000/svg"
>
<g clip-path="url(#clip0_730_2761)">
<path
      d="M15.1764 33.0588L8.82351 38.8235C8.70586 35.6471 8.84704 29.2 10.3529 28.8235V28.2214C10.3312 28.1348 10.3303 28.0605 10.3529 28H0.235294C1.96076 26 6.09405 21.8824 8.82351 21.4118C5.99998 19.5294 0.282353 15.4353 0 14.1176C2.95922 13.8619 8.96115 13.6743 10.8337 14.7912C9.77419 13.7629 8.21743 10.4678 8.47059 3.29412C10.8628 5.09805 15.7647 9.17647 16.2353 11.0588C16.7451 7.80393 18.1647 1.03529 19.7647 0C21.098 2.78431 23.5765 8.89412 22.8235 11.0588C24.5099 8.58823 28.4471 3.57647 30.7059 3.29412C30.3136 6.90195 29.2235 14.2118 28 14.5882H38.8235C36.2353 16.7451 30.9882 21.1294 30.7059 21.4118C30.7042 21.426 30.7026 21.4405 30.7007 21.4551C30.8786 21.9515 36.9002 25.3579 40 27.0588L29.0588 28L31.4118 38.8235L23.8824 33.0588C23.6699 33.1082 23.4328 33.1593 23.1765 33.2106C22.3137 36.4148 20.4 42.8235 19.6471 42.8235C18.3529 39.7774 15.8118 33.6376 16 33.4478C15.6796 33.3487 15.4007 33.2207 15.1764 33.0588Z"
      fill="#655D8A"
    />
<path
      d="M15.4114 32.353C13.8242 31.0904 10.8371 28.5075 10.5878 27.5155C10.5661 27.429 10.5652 27.3546 10.5878 27.2941C9.96036 25.6864 8.77603 22.1177 9.05841 20.7059C9.37215 18.7451 10.282 14.7294 11.4114 14.353C12.3134 13.1373 14.5878 10.6353 16.4702 10.353C18.1565 10 21.8349 9.5059 23.0584 10.353C24.4311 10.8235 27.3878 12.1883 28.2348 13.8824C28.9017 14.9412 30.376 17.7883 30.9407 20.7059C30.7447 22.3922 30.1407 26.0706 29.2937 27.2941C28.1958 28.86 25.6231 32.0638 24.1172 32.353C23.9047 32.4024 23.6678 32.4534 23.4114 32.5047C21.3691 32.9127 18.1004 33.3186 16.2349 32.7419C15.9146 32.6428 15.6356 32.5148 15.4114 32.353Z"
      fill="#DB66E4"
    />
</g>
<defs>
<clipPath id="clip0_730_2761">
<rect width="40" height="42.8235" fill="white" />
</clipPath>
</defs>
</svg>
