<svg width="40" height="40" viewBox="0 0 40 40" fill="none" xmlns="http://www.w3.org/2000/svg">
<circle cx="9.63763" cy="28.9853" r="3.18841" stroke="black" stroke-width="2"/>
<circle cx="30.0419" cy="28.9853" r="3.18841" stroke="black" stroke-width="2"/>
<path d="M26.3762 12.2457L26.3762 7.66602C26.3762 7.11373 25.9285 6.66602 25.3762 6.66602H2.66602C2.11373 6.66602 1.66602 7.11373 1.66602 7.66601V23.4052C1.66602 23.8454 2.02289 24.2023 2.46312 24.2023V24.2023M26.3762 12.2457L26.4476 24.2023M26.3762 12.2457H30.3617M34.5075 28.4845H37.3327C37.885 28.4845 38.3327 28.0368 38.3327 27.4845V21.0138M25.769 28.4845H22.5336M14.0796 28.4845H16.811M5.43954 28.4845C5.43954 28.4845 3.71592 28.4845 2.6115 28.4845V28.4845C2.52955 28.4845 2.46312 28.4181 2.46312 28.3361V24.2023M2.46312 24.2023H16.811M26.3762 24.2023H26.4476M16.811 28.4845V24.2023M16.811 28.4845H22.5336M16.811 24.2023H22.5336M22.5336 28.4845V24.2023M22.5336 24.2023H26.4476M30.3617 12.2457H32.753L36.8682 16.361C37.8059 17.2987 38.3327 18.5704 38.3327 19.8965V21.0138M30.3617 12.2457V20.0138C30.3617 20.5661 30.8094 21.0138 31.3617 21.0138H38.3327" stroke="black" stroke-width="2" stroke-linecap="round" stroke-linejoin="round"/>
</svg>
