<svg width="20" height="20" viewBox="0 0 20 20" fill="none" xmlns="http://www.w3.org/2000/svg">
<path d="M19 5.3125C17.7568 5.3125 16.5645 4.81864 15.6854 3.93956C14.8064 3.06049 14.3125 1.8682 14.3125 0.625C14.3125 0.475816 14.2532 0.332742 14.1477 0.227252C14.0423 0.121763 13.8992 0.0625 13.75 0.0625H10C9.85081 0.0625 9.70774 0.121763 9.60225 0.227252C9.49676 0.332742 9.4375 0.475816 9.4375 0.625V12.625C9.43734 12.9942 9.33809 13.3566 9.15011 13.6743C8.96212 13.9921 8.69229 14.2535 8.36879 14.4314C8.04528 14.6093 7.67996 14.6971 7.31094 14.6856C6.94193 14.6742 6.58276 14.5639 6.27092 14.3662C5.95909 14.1686 5.70601 13.8909 5.53812 13.5621C5.37022 13.2333 5.29366 12.8654 5.31642 12.497C5.33919 12.1285 5.46044 11.7728 5.66753 11.4672C5.87462 11.1616 6.15995 10.9171 6.49375 10.7594C6.58912 10.7135 6.66962 10.6417 6.726 10.5521C6.78239 10.4626 6.81237 10.3589 6.8125 10.2531V6.35312C6.81226 6.27023 6.794 6.18838 6.75899 6.11324C6.72399 6.0381 6.67306 5.97147 6.60975 5.91797C6.54643 5.86446 6.47224 5.82536 6.39232 5.80337C6.31239 5.78139 6.22864 5.77704 6.14687 5.79062C4.84841 6.02418 3.64346 6.62313 2.67334 7.51725C1.70323 8.41136 1.00818 9.56355 0.669703 10.8387C0.331228 12.1138 0.363366 13.4591 0.762348 14.7166C1.16133 15.9741 1.91061 17.0918 2.92232 17.9386C3.93402 18.7853 5.1662 19.3261 6.47433 19.4973C7.78247 19.6686 9.11232 19.4633 10.3079 18.9056C11.5035 18.3478 12.5153 17.4607 13.2246 16.3483C13.9339 15.2359 14.3113 13.9443 14.3125 12.625V8.95938C15.7422 9.768 17.3575 10.1912 19 10.1875C19.1492 10.1875 19.2923 10.1282 19.3977 10.0227C19.5032 9.91726 19.5625 9.77418 19.5625 9.625V5.875C19.5625 5.72582 19.5032 5.58274 19.3977 5.47725C19.2923 5.37176 19.1492 5.3125 19 5.3125ZM18.4375 9.04375C16.8657 8.94377 15.3544 8.40097 14.0781 7.47812C13.9948 7.41794 13.8965 7.38175 13.794 7.37349C13.6916 7.36522 13.5888 7.3852 13.4969 7.43125C13.4046 7.48007 13.3272 7.55285 13.2727 7.64193C13.2183 7.73101 13.1888 7.83311 13.1875 7.9375V12.625C13.1863 13.7015 12.8861 14.7565 12.3205 15.6725C11.7549 16.5884 10.946 17.3293 9.98399 17.8125C9.02202 18.2957 7.94476 18.5022 6.87228 18.4091C5.7998 18.316 4.77425 17.9269 3.90994 17.2851C3.04563 16.6434 2.37652 15.7742 1.97719 14.7745C1.57787 13.7748 1.46402 12.6838 1.64833 11.6232C1.83264 10.5626 2.30787 9.57402 3.02106 8.76764C3.73424 7.96126 4.65735 7.36879 5.6875 7.05625V9.925C5.2166 10.2189 4.8306 10.6306 4.5677 11.1194C4.3048 11.6083 4.17412 12.1573 4.18858 12.7122C4.20304 13.2671 4.36215 13.8086 4.65016 14.2831C4.93817 14.7576 5.34509 15.1486 5.83066 15.4176C6.31622 15.6865 6.8636 15.824 7.41861 15.8164C7.97362 15.8088 8.51703 15.6564 8.99506 15.3743C9.47308 15.0921 9.86915 14.6901 10.1441 14.2079C10.419 13.7257 10.5632 13.1801 10.5625 12.625V1.1875H13.2156C13.3462 2.52814 13.9382 3.78183 14.8907 4.73429C15.8432 5.68675 17.0969 6.27884 18.4375 6.40937V9.04375Z" fill="#C192EE"/>
</svg>
