<svg width="24" height="24" viewBox="0 0 24 24" fill="none" xmlns="http://www.w3.org/2000/svg">
<path d="M1.99916 22.75C1.79916 22.75 1.60913 22.67 1.46913 22.53C1.27913 22.34 1.19918 22.06 1.26918 21.8L2.52919 17.09C1.68919 15.53 1.24916 13.77 1.24916 11.99C1.24916 6.05999 6.06916 1.23999 11.9992 1.23999C17.9292 1.23999 22.7492 6.05999 22.7492 11.99C22.7492 17.92 17.9292 22.74 11.9992 22.74C10.1892 22.74 8.41919 22.29 6.83919 21.43L2.19917 22.72C2.12917 22.74 2.06916 22.75 1.99916 22.75ZM6.93916 19.88C7.06916 19.88 7.19917 19.92 7.31917 19.98C8.72917 20.81 10.3492 21.25 11.9992 21.25C17.0992 21.25 21.2492 17.1 21.2492 12C21.2492 6.9 17.0992 2.75 11.9992 2.75C6.89916 2.75 2.74916 6.9 2.74916 12C2.74916 13.63 3.17915 15.22 3.98915 16.62C4.08915 16.79 4.11917 17 4.06917 17.19L3.06917 20.93L6.74916 19.91C6.80916 19.89 6.87916 19.88 6.93916 19.88Z" fill="#292D32"/>
<path d="M14.7402 17.76C14.1202 17.76 13.4802 17.62 12.8102 17.33C12.1802 17.06 11.5502 16.7 10.9402 16.25C10.3402 15.81 9.75027 15.31 9.21027 14.77C8.67027 14.22 8.17022 13.64 7.73022 13.04C7.28022 12.41 6.92022 11.79 6.66022 11.18C6.38022 10.52 6.24023 9.87001 6.24023 9.25001C6.24023 8.81001 6.32021 8.39001 6.47021 8.00001C6.63021 7.59001 6.89022 7.22001 7.23022 6.90001C7.87022 6.27001 8.79026 6.04003 9.52026 6.39003C9.77026 6.50003 9.98026 6.68002 10.1403 6.92002L11.3002 8.55C11.4202 8.71 11.5103 8.88 11.5803 9.05C11.6603 9.25 11.7103 9.45003 11.7103 9.64003C11.7103 9.90003 11.6402 10.16 11.5002 10.39C11.4102 10.54 11.2802 10.72 11.1102 10.89L10.9802 11.03C11.0402 11.11 11.1102 11.21 11.2202 11.33C11.4302 11.57 11.6602 11.83 11.9102 12.08C12.1602 12.32 12.4102 12.56 12.6602 12.77C12.7802 12.87 12.8803 12.95 12.9603 13L13.1002 12.86C13.2802 12.68 13.4603 12.54 13.6403 12.45C13.9703 12.24 14.4802 12.19 14.9302 12.38C15.0902 12.44 15.2502 12.53 15.4202 12.65L17.0903 13.83C17.3203 13.99 17.5002 14.21 17.6202 14.46C17.7202 14.71 17.7603 14.93 17.7603 15.16C17.7603 15.46 17.6902 15.75 17.5602 16.03C17.4302 16.29 17.2802 16.52 17.1002 16.73C16.7802 17.08 16.4103 17.34 16.0103 17.51C15.6103 17.68 15.1802 17.76 14.7402 17.76ZM8.79022 7.74C8.73022 7.74 8.53027 7.74 8.28027 7.99C8.09027 8.17 7.96024 8.36002 7.87024 8.57002C7.78024 8.78002 7.74023 9.02002 7.74023 9.26002C7.74023 9.68002 7.84022 10.13 8.04022 10.61C8.25022 11.11 8.56025 11.64 8.94025 12.17C9.33025 12.7 9.77025 13.23 10.2603 13.72C10.7503 14.2 11.2702 14.65 11.8102 15.05C12.3302 15.43 12.8603 15.73 13.3903 15.96C14.1503 16.29 14.8502 16.37 15.4202 16.13C15.6202 16.05 15.8002 15.91 15.9802 15.73C16.0702 15.63 16.1403 15.53 16.2003 15.4C16.2303 15.33 16.2502 15.25 16.2502 15.18C16.2502 15.16 16.2502 15.13 16.2202 15.07L14.5502 13.91C14.4802 13.86 14.4102 13.82 14.3502 13.8C14.3102 13.82 14.2503 13.85 14.1403 13.96L13.7603 14.34C13.4703 14.63 13.0103 14.71 12.6403 14.58L12.4603 14.5C12.2303 14.38 11.9702 14.2 11.6802 13.95C11.4002 13.71 11.1303 13.46 10.8403 13.18C10.5603 12.89 10.3103 12.62 10.0703 12.34C9.81025 12.03 9.63025 11.78 9.51025 11.57L9.40027 11.31C9.37027 11.21 9.36023 11.1 9.36023 11C9.36023 10.72 9.46027 10.47 9.65027 10.27L10.0303 9.88002C10.1403 9.77002 10.1803 9.71002 10.2003 9.67002C10.1703 9.60002 10.1303 9.54001 10.0803 9.47001L8.91022 7.82002L8.79022 7.74Z" fill="#292D32"/>
</svg>
