<svg width="26" height="26" viewBox="0 0 26 26" fill="none" xmlns="http://www.w3.org/2000/svg">
<path d="M25.7145 5.285C25.6463 5.20314 25.561 5.13728 25.4645 5.09208C25.368 5.04688 25.2628 5.02344 25.1563 5.02344H5.41797L4.79191 1.57227C4.72098 1.18143 4.51506 0.827911 4.21009 0.573399C3.90512 0.318888 3.52046 0.179545 3.12324 0.179688H0.9375C0.744804 0.179688 0.56 0.256236 0.423743 0.392493C0.287486 0.52875 0.210938 0.713554 0.210938 0.90625C0.210938 1.09895 0.287486 1.28375 0.423743 1.42001C0.56 1.55626 0.744804 1.63281 0.9375 1.63281H3.11719C3.17453 1.63188 3.23035 1.65132 3.2747 1.68769C3.31905 1.72406 3.34906 1.77499 3.35938 1.83141L6.44848 18.8209C6.54647 19.3628 6.81053 19.8609 7.2041 20.2461C6.72885 20.6263 6.37394 21.136 6.18235 21.7136C5.99075 22.2913 5.97067 22.912 6.12453 23.5008C6.27839 24.0896 6.59961 24.6212 7.0493 25.0313C7.499 25.4414 8.0579 25.7123 8.65837 25.8113C9.25883 25.9103 9.87513 25.8332 10.4327 25.5893C10.9902 25.3453 11.4651 24.945 11.7999 24.4368C12.1347 23.9286 12.315 23.3342 12.319 22.7257C12.3231 22.1171 12.1506 21.5204 11.8226 21.0078H18.1461C17.7696 21.597 17.6 22.2948 17.6639 22.9911C17.7279 23.6874 18.0218 24.3427 18.4994 24.8534C18.977 25.3642 19.611 25.7014 20.3014 25.812C20.9919 25.9225 21.6995 25.8001 22.3126 25.4639C22.9258 25.1278 23.4096 24.5971 23.6878 23.9556C23.9659 23.3141 24.0226 22.5982 23.8489 21.9209C23.6751 21.2435 23.2809 20.6433 22.7283 20.2149C22.1756 19.7865 21.4961 19.5542 20.7969 19.5547H9.07137C8.78777 19.5547 8.51316 19.4552 8.2954 19.2736C8.07765 19.0919 7.93057 18.8395 7.87981 18.5605L7.44387 16.1641H21.7777C22.4017 16.1642 23.0058 15.9454 23.4849 15.5457C23.964 15.1461 24.2877 14.5909 24.3994 13.9771L25.8707 5.87957C25.8897 5.77507 25.8856 5.66768 25.8586 5.56495C25.8316 5.46222 25.7824 5.36666 25.7145 5.285ZM10.8672 22.7031C10.8672 23.0384 10.7678 23.3662 10.5815 23.645C10.3952 23.9238 10.1304 24.1411 9.82064 24.2694C9.51087 24.3977 9.17 24.4313 8.84114 24.3659C8.51228 24.3004 8.2102 24.139 7.97311 23.9019C7.73601 23.6648 7.57455 23.3627 7.50914 23.0339C7.44372 22.705 7.4773 22.3641 7.60561 22.0544C7.73393 21.7446 7.95122 21.4798 8.23001 21.2935C8.5088 21.1072 8.83657 21.0078 9.17188 21.0078C9.6215 21.0078 10.0527 21.1864 10.3706 21.5044C10.6886 21.8223 10.8672 22.2535 10.8672 22.7031ZM22.4922 22.7031C22.4922 23.0384 22.3928 23.3662 22.2065 23.645C22.0202 23.9238 21.7554 24.1411 21.4456 24.2694C21.1359 24.3977 20.795 24.4313 20.4661 24.3659C20.1373 24.3004 19.8352 24.139 19.5981 23.9019C19.361 23.6648 19.1996 23.3627 19.1341 23.0339C19.0687 22.705 19.1023 22.3641 19.2306 22.0544C19.3589 21.7446 19.5762 21.4798 19.855 21.2935C20.1338 21.1072 20.4616 21.0078 20.7969 21.0078C21.2465 21.0078 21.6777 21.1864 21.9956 21.5044C22.3136 21.8223 22.4922 22.2535 22.4922 22.7031ZM22.9693 13.7168C22.9185 13.9958 22.7715 14.2481 22.5537 14.4298C22.3359 14.6115 22.0613 14.711 21.7777 14.7109H7.17988L5.68316 6.47656H24.2856L22.9693 13.7168Z" fill="#DB66E4"/>
</svg>
