<svg width="29" height="36" viewBox="0 0 29 36" fill="none" xmlns="http://www.w3.org/2000/svg">
<path d="M27.25 32H2.75003C2.2859 32 1.84078 32.1844 1.51259 32.5126C1.18441 32.8407 1.00003 33.2859 1.00003 33.75C1.00003 34.2141 1.18441 34.6592 1.51259 34.9874C1.84078 35.3156 2.2859 35.5 2.75003 35.5H27.25C27.7142 35.5 28.1593 35.3156 28.4875 34.9874C28.8157 34.6592 29 34.2141 29 33.75C29 33.2859 28.8157 32.8407 28.4875 32.5126C28.1593 32.1844 27.7142 32 27.25 32ZM2.75003 28.5H2.90753L10.205 27.835C11.0044 27.7554 11.7521 27.4032 12.3225 26.8375L28.0725 11.0875C28.6838 10.4417 29.0142 9.57988 28.9912 8.69093C28.9683 7.80198 28.5939 6.95838 27.95 6.345L23.155 1.55C22.5292 0.962163 21.7092 0.624873 20.8509 0.602287C19.9926 0.5797 19.1559 0.873392 18.5 1.4275L2.75003 17.1775C2.18437 17.7479 1.83216 18.4956 1.75253 19.295L1.00003 26.5925C0.976457 26.8488 1.00972 27.1072 1.09744 27.3492C1.18516 27.5912 1.32518 27.8108 1.50753 27.9925C1.67105 28.1547 1.86498 28.283 2.07819 28.3701C2.29141 28.4572 2.51972 28.5013 2.75003 28.5ZM20.7225 4L25.5 8.7775L22 12.19L17.31 7.5L20.7225 4Z" fill="#DB66E4"/>
</svg>
