<svg width="36" height="36" viewBox="0 0 36 36" fill="none" xmlns="http://www.w3.org/2000/svg">
<g clip-path="url(#clip0_1464_4120)">
<rect width="36" height="36" rx="18" fill="white"/>
<path d="M52.8965 24.3508V34.8519C52.8965 35.6025 52.3851 36.2585 51.6563 36.4376C35.1804 40.4857 18.7046 31.9306 2.22869 35.6059C1.21114 35.8329 0.246475 35.0541 0.246475 34.0115V24.3508C17.7965 19.3485 35.3464 29.3531 52.8965 24.3508Z" fill="#FF473E"/>
<path d="M52.8965 12.593V24.3509C35.3464 29.3532 17.7965 19.3486 0.246475 24.3509V12.593C17.7965 7.59067 35.3464 17.5953 52.8965 12.593Z" fill="#0B67B2"/>
<path d="M52.8965 2.47507V12.5928C35.3464 17.5951 17.7965 7.59051 0.246475 12.5928V1.63463C0.246475 0.884039 0.757843 0.228061 1.48669 0.0489794C17.9626 -3.9991 34.4384 4.55595 50.9143 0.880624C51.9318 0.653717 52.8965 1.43247 52.8965 2.47507Z" fill="#E8E8E8"/>
</g>
<defs>
<clipPath id="clip0_1464_4120">
<rect width="36" height="36" rx="18" fill="white"/>
</clipPath>
</defs>
</svg>
