<svg width="36" height="36" viewBox="0 0 36 36" fill="none" xmlns="http://www.w3.org/2000/svg">
<path d="M18.5 35.7812C28.5965 35.7812 36.7812 27.5965 36.7812 17.5C36.7812 7.40354 28.5965 -0.78125 18.5 -0.78125C8.40354 -0.78125 0.21875 7.40354 0.21875 17.5C0.21875 27.5965 8.40354 35.7812 18.5 35.7812Z" fill="#F42F4C"/>
<path d="M29.2863 18.9016C28.4941 18.2312 27.0926 18.3531 26.1176 18.4141C27.2145 17.8656 28.9207 16.7688 30.0785 17.7438C29.2254 16.5859 27.3363 16.9516 26.1785 17.1953C27.1535 16.4641 28.677 15.1844 29.9566 15.9156C28.9207 14.8797 27.0926 15.55 25.9957 16.0375C26.8488 15.1844 28.1285 13.6609 29.5301 14.1484C28.3723 13.2953 26.666 14.2094 25.6301 14.8797C26.3004 13.9047 27.3973 12.1984 28.8598 12.5031C27.5801 11.8328 26.0566 13.0516 25.1426 13.7828C25.691 12.6859 26.4223 10.8578 27.9457 10.9188C26.5441 10.4922 25.2645 11.8937 24.4723 12.8078C24.8379 11.65 25.2645 9.7 26.7879 9.51719C25.3863 9.27344 24.2895 10.8578 23.6801 11.8937C23.8629 10.675 23.9848 8.66406 25.4473 8.29844C23.9848 8.29844 23.1926 10.0656 22.7051 11.1625C22.7051 9.94375 22.5223 7.93281 23.9238 7.32344C22.5223 7.56719 21.9738 9.39531 21.6691 10.5531C21.4863 9.33438 20.9988 7.38438 22.2176 6.59219C20.816 7.01875 20.6332 8.96875 20.5113 10.1266C20.1457 8.96875 19.3535 7.14063 20.4504 6.10469C19.1707 6.775 19.2316 8.66406 19.2926 9.88281C18.7441 8.78594 17.6473 7.07969 18.6223 5.92188C17.4645 6.775 17.8301 8.66406 18.0738 9.82187C17.3426 8.84687 16.0629 7.32344 16.7941 6.04375C15.7582 7.07969 16.4285 8.84688 16.916 10.0047C16.0629 9.15156 14.5395 7.87187 15.027 6.47031C14.1738 7.62812 15.0879 9.33437 15.7582 10.3703C14.7832 9.7 13.077 8.60313 13.3816 7.14062C12.7113 8.42031 13.9301 9.94375 14.7223 10.8578C13.6254 10.3094 11.7973 9.57812 11.8582 8.05469C11.4316 9.39531 12.8332 10.7359 13.7473 11.5281C12.5895 11.1625 10.6395 10.7359 10.4566 9.2125C10.2129 10.6141 11.7973 11.7109 12.8332 12.3203C11.6145 12.1375 9.60352 12.0156 9.23789 10.5531C9.23789 12.0156 11.0051 12.8078 12.102 13.2953C10.8832 13.2953 8.87227 13.4781 8.26289 12.0766C8.50664 13.4781 10.3348 14.0266 11.4926 14.3312C10.2738 14.5141 8.32383 15.0016 7.53164 13.7828C7.9582 15.1844 9.9082 15.3672 11.066 15.4891C9.9082 15.8547 8.08008 16.6469 7.04414 15.55C7.71445 16.8297 9.60352 16.7688 10.8223 16.7078C9.72539 17.2563 8.01914 18.3531 6.86133 17.3781C7.71445 18.5359 9.60352 18.1703 10.7613 17.9266C9.78633 18.6578 8.26289 19.9375 6.9832 19.2062C8.01914 20.2422 9.78633 19.5719 10.9441 19.0844C10.091 19.9375 8.81133 21.4609 7.40977 20.9734C8.56758 21.8266 10.2738 20.9125 11.3098 20.2422C10.6395 21.2172 9.54258 22.9234 8.08008 22.6188C9.35977 23.2891 10.8832 22.0703 11.7973 21.2781C11.2488 22.375 10.5176 24.2031 8.99414 24.1422C10.3957 24.5688 11.6754 23.1672 12.4676 22.2531C12.102 23.4109 11.6754 25.3609 10.152 25.5438C11.5535 25.7875 12.6504 24.1422 13.2598 23.1672C13.077 24.3859 12.9551 26.3969 11.4926 26.7625C12.9551 26.7625 13.7473 24.9953 14.2348 23.8984C14.2348 25.1172 14.4176 27.1281 13.016 27.7375C14.4176 27.4937 14.966 25.6656 15.2707 24.5078C15.4535 25.7266 15.941 27.6766 14.7223 28.4688C16.1238 28.0422 16.3066 26.0922 16.4285 24.9344C16.7941 26.0922 17.5863 27.9203 16.4895 28.9562C17.7691 28.2859 17.7082 26.3969 17.6473 25.1781C18.1957 26.275 19.2926 27.9812 18.3176 29.1391C19.4754 28.2859 19.1098 26.3969 18.866 25.2391C19.5973 26.2141 20.877 27.7375 20.1457 29.0172C21.1816 27.9813 20.5113 26.2141 20.0238 25.0563C20.877 25.9094 22.4004 27.1891 21.9129 28.5906C22.766 27.4328 21.852 25.7266 21.1816 24.6906C22.1566 25.3609 23.8629 26.4578 23.5582 27.9203C24.2285 26.6406 23.0098 25.1172 22.2785 24.2031C23.3754 24.7516 25.2035 25.4828 25.1426 27.0062C25.5691 25.6047 24.1676 24.325 23.2535 23.5328C24.4113 23.8984 26.3613 24.325 26.5441 25.8484C26.7879 24.3859 25.1426 23.35 24.1676 22.7406C25.3863 22.9234 27.3363 23.0453 27.7629 24.5078C27.7629 23.0453 25.9957 22.2531 24.8988 21.7656C26.1176 21.7656 28.1285 21.5828 28.7379 22.9844C28.4941 21.5219 26.666 21.0344 25.5082 20.7297C26.727 20.5469 28.677 20.0594 29.4691 21.2781C29.0426 19.9375 27.0926 19.6328 25.9348 19.5719C27.0926 19.1453 28.9207 18.4141 29.9566 19.5109C29.7738 19.2672 29.5301 19.0844 29.2863 18.9016ZM18.5004 24.8125C15.7582 24.8125 13.1988 23.2281 11.9801 20.7906C10.7004 18.3531 11.0051 15.3063 12.6504 13.0516C14.2957 10.8578 17.0988 9.76094 19.841 10.2484C22.5223 10.7359 24.716 12.7469 25.5082 15.3062C26.9098 19.9984 23.3145 24.8125 18.5004 24.8125Z" fill="#FFE62E"/>
<path d="M14.1125 13.2344C13.0156 14.3312 12.4062 15.8547 12.4062 17.5C12.4062 18.7188 12.7719 19.8766 13.3813 20.8516C13.8688 18.5969 14.9047 16.525 16.2453 14.8188C15.6359 14.2094 14.9047 13.6609 14.1125 13.2344ZM18.0734 12.8687C17.5859 12.4422 17.0375 12.0766 16.4891 11.7109C16.2453 11.7719 16.0016 11.8938 15.7578 12.0156C16.3672 12.3813 16.9766 12.8688 17.5859 13.2953C17.7078 13.2344 17.8906 13.0516 18.0734 12.8687ZM17.1594 13.7828C16.55 13.2344 15.8797 12.8078 15.1484 12.3813C14.9656 12.5031 14.7828 12.6859 14.6 12.8078C15.3312 13.2344 16.0625 13.7219 16.6719 14.3312C16.7937 14.1484 16.9766 13.9656 17.1594 13.7828ZM16.7328 15.1844C15.3312 17.0125 14.3562 19.1453 13.8687 21.4609C14.1734 21.7656 14.4781 22.0703 14.8437 22.375C15.0875 19.9375 15.9406 17.6828 17.2812 15.7938C17.0984 15.55 16.9156 15.3672 16.7328 15.1844ZM19.7187 15.7938C21.0594 17.6828 21.9734 19.9375 22.1562 22.375C22.5219 22.1313 22.8266 21.8266 23.1312 21.4609C22.7047 19.1453 21.6687 17.0125 20.2672 15.1844C20.0844 15.3672 19.9016 15.55 19.7187 15.7938ZM18.0125 15.7938C18.1953 16.0375 18.3781 16.2203 18.5 16.4641C18.6828 16.2203 18.8047 16.0375 18.9875 15.7938C18.8047 15.6109 18.6828 15.3672 18.5 15.1844C18.3172 15.3672 18.1344 15.55 18.0125 15.7938ZM19.7797 11.5281C19.3531 11.4672 18.9266 11.4062 18.5 11.4062C18.0734 11.4062 17.6469 11.4672 17.2203 11.5281C17.6469 11.8328 18.1344 12.1375 18.5 12.5031C18.9266 12.1375 19.3531 11.8328 19.7797 11.5281Z" fill="#FFE62E"/>
<path d="M18.1961 17.0125L17.6477 16.2812C16.368 18.1703 15.5148 20.3641 15.332 22.7406L16.4289 23.2891V23.1063C16.4898 20.8516 17.0992 18.7797 18.1961 17.0125ZM18.5008 14.2703L19.0492 13.7219C18.8664 13.5391 18.6836 13.3563 18.5008 13.2344C18.318 13.4172 18.1352 13.5391 17.9523 13.7219L18.5008 14.2703ZM19.4148 15.3062C19.5977 15.1234 19.7805 14.8797 19.9633 14.6969C19.7805 14.5141 19.6586 14.3312 19.4758 14.1484L18.9273 14.6969C19.0492 14.9406 19.232 15.1234 19.4148 15.3062ZM17.5867 14.2094C17.4039 14.3922 17.282 14.575 17.0992 14.7578C17.282 14.9406 17.4648 15.1234 17.6477 15.3672C17.8305 15.1844 17.9523 14.9406 18.1352 14.7578C17.9523 14.5141 17.7695 14.3313 17.5867 14.2094Z" fill="#FFE62E"/>
<path d="M18.4996 17.561C17.5855 19.2063 17.0371 21.0954 17.0371 23.0454V23.411C17.5246 23.5329 18.0121 23.5938 18.4996 23.5938C18.9871 23.5938 19.4746 23.5329 19.9621 23.411V23.0454C19.9621 21.0345 19.4137 19.1454 18.4996 17.561ZM18.8652 17.0126C19.9621 18.7798 20.5715 20.8517 20.5715 23.1063V23.2892C20.9371 23.1673 21.3637 22.9845 21.6684 22.7407C21.4855 20.3642 20.6934 18.1704 19.3527 16.2813C19.1699 16.4642 18.9871 16.7079 18.8652 17.0126ZM19.4746 13.3563C20.023 12.8688 20.6324 12.4423 21.3027 12.0767C21.059 11.9548 20.8152 11.8329 20.5715 11.772C20.023 12.1376 19.4746 12.5032 18.9871 12.9298C19.109 13.0517 19.2918 13.2345 19.4746 13.3563ZM23.6184 20.8517C24.2277 19.8767 24.5934 18.7188 24.5934 17.5001C24.5934 15.8548 23.923 14.3313 22.8871 13.2345C22.0949 13.661 21.3637 14.1485 20.7543 14.7579C22.0949 16.5251 23.0699 18.597 23.6184 20.8517ZM20.3277 14.3313C20.9371 13.7829 21.6684 13.2345 22.3996 12.8079C22.2168 12.6251 22.034 12.5032 21.8512 12.3813C21.1199 12.8079 20.5105 13.2345 19.8402 13.7829C20.023 13.9657 20.2059 14.1485 20.3277 14.3313Z" fill="#FFE62E"/>
</svg>
