<svg width="22" height="23" viewBox="0 0 22 23" fill="none" xmlns="http://www.w3.org/2000/svg">
<path fill-rule="evenodd" clip-rule="evenodd" d="M5.76153 1.22668C3.14476 1.22668 1.02344 3.348 1.02344 5.96478V16.441C1.02344 19.0577 3.14476 21.1791 5.76153 21.1791H16.2377C18.8545 21.1791 20.9758 19.0577 20.9758 16.441V5.96478C20.9758 3.348 18.8545 1.22668 16.2377 1.22668H5.76153ZM0.0234375 5.96478C0.0234375 2.79572 2.59247 0.226685 5.76153 0.226685H16.2377C19.4068 0.226685 21.9758 2.79572 21.9758 5.96478V16.441C21.9758 19.61 19.4068 22.1791 16.2377 22.1791H5.76153C2.59247 22.1791 0.0234375 19.61 0.0234375 16.441V5.96478ZM11.5863 7.5068C10.8184 7.39293 10.0342 7.52409 9.34523 7.8816C8.65622 8.23912 8.09748 8.80478 7.74849 9.49815C7.3995 10.1915 7.27802 10.9773 7.40135 11.7437C7.52467 12.51 7.8865 13.218 8.43539 13.7669C8.98428 14.3158 9.69226 14.6776 10.4586 14.801C11.225 14.9243 12.0108 14.8028 12.7042 14.4538C13.3975 14.1048 13.9632 13.5461 14.3207 12.8571C14.6782 12.1681 14.8094 11.3839 14.6955 10.616C14.5794 9.83279 14.2144 9.10768 13.6545 8.54779C13.0946 7.98791 12.3695 7.62294 11.5863 7.5068ZM8.88466 6.99398C9.76037 6.53959 10.7571 6.3729 11.733 6.51761C12.7284 6.66523 13.65 7.12909 14.3616 7.84069C15.0732 8.55228 15.5371 9.47388 15.6847 10.4693C15.8294 11.4452 15.6627 12.4419 15.2083 13.3176C14.7539 14.1934 14.035 14.9035 13.1537 15.347C12.2725 15.7906 11.2738 15.945 10.2998 15.7883C9.32573 15.6315 8.4259 15.1716 7.72828 14.474C7.03067 13.7764 6.57078 12.8766 6.41405 11.9025C6.25731 10.9285 6.4117 9.92981 6.85525 9.04856C7.29881 8.16732 8.00895 7.44837 8.88466 6.99398ZM16.7615 4.94097C16.4854 4.94097 16.2615 5.16483 16.2615 5.44097C16.2615 5.71711 16.4854 5.94097 16.7615 5.94097H16.7715C17.0477 5.94097 17.2715 5.71711 17.2715 5.44097C17.2715 5.16483 17.0477 4.94097 16.7715 4.94097H16.7615Z" fill="#C192EE"/>
</svg>
