<svg width="24" height="24" viewBox="0 0 24 24" fill="none" xmlns="http://www.w3.org/2000/svg">
<path d="M14.2004 22.139C14.2004 22.1385 14.2003 22.138 14.2001 22.1375L13.922 21.6385C13.0824 20.1315 10.9145 20.1315 10.0749 21.6385L9.79644 22.1382C9.59752 22.4949 9.27017 22.7551 8.88628 22.8618C8.50238 22.9685 8.09332 22.9129 7.74894 22.7072L5.14944 21.1525C4.80493 20.9463 4.55355 20.6067 4.45059 20.2085C4.34763 19.8102 4.40153 19.3858 4.60044 19.0287L4.93866 18.4217C5.77426 16.9219 4.68996 15.0766 2.97315 15.0766H2.39844C2.00061 15.0766 1.61908 14.9128 1.33778 14.6212C1.05647 14.3296 0.898438 13.9342 0.898438 13.5218V10.4123C0.898438 10 1.05647 9.60455 1.33778 9.31298C1.61908 9.02141 2.00061 8.85761 2.39844 8.85761H2.97315C4.68996 8.85761 5.77426 7.01223 4.93866 5.5125L4.60044 4.90546C4.50172 4.72858 4.4376 4.53326 4.41177 4.33068C4.38593 4.12809 4.39888 3.92222 4.44987 3.72483C4.50086 3.52744 4.58889 3.3424 4.70893 3.1803C4.82896 3.0182 4.97866 2.88221 5.14944 2.78012L7.74744 1.22538C8.09196 1.01922 8.50138 0.963351 8.88564 1.07007C9.26989 1.17678 9.59752 1.43734 9.79644 1.79442L10.0334 2.21991C10.8911 3.75994 13.1063 3.76027 13.9645 2.22048L14.2019 1.79442C14.4009 1.43776 14.7282 1.1775 15.1121 1.07081C15.496 0.96412 15.9051 1.01971 16.2494 1.22538L18.8489 2.78012C19.193 2.9863 19.4441 3.32559 19.5471 3.7235C19.65 4.12141 19.5964 4.54539 19.3979 4.90235L19.058 5.51258C18.2225 7.01232 19.3068 8.85761 21.0235 8.85761H21.5984C21.9963 8.85761 22.3778 9.02141 22.6591 9.31298C22.9404 9.60455 23.0984 10 23.0984 10.4123V13.5218C23.0984 13.9342 22.9404 14.3296 22.6591 14.6212C22.3778 14.9128 21.9963 15.0766 21.5984 15.0766H21.023C19.3063 15.0766 18.222 16.9216 19.0573 18.4214L19.3964 19.0303C19.5953 19.3874 19.6492 19.8117 19.5463 20.21C19.4433 20.6083 19.1919 20.9479 18.8474 21.1541L16.2494 22.7088C15.9049 22.915 15.4955 22.9708 15.1112 22.8641C14.7272 22.7575 14.3998 22.4972 14.2008 22.1404C14.2006 22.14 14.2004 22.1395 14.2004 22.139V22.139Z" stroke="#DB66E4" stroke-width="1.5" stroke-linejoin="round"/>
<circle cx="12" cy="12" r="3.75" stroke="#DB66E4" stroke-width="1.5"/>
</svg>
