<svg width="30" height="35" viewBox="0 0 30 35" fill="none" xmlns="http://www.w3.org/2000/svg">
<path fill-rule="evenodd" clip-rule="evenodd" d="M20.8846 10.4494C21.3727 10.9375 21.3727 11.729 20.8846 12.2171L15.0512 18.0505C14.5631 18.5386 13.7716 18.5386 13.2835 18.0505L9.95014 14.7171C9.46199 14.229 9.46199 13.4375 9.95014 12.9494C10.4383 12.4612 11.2298 12.4612 11.7179 12.9494L14.1674 15.3988L19.1168 10.4494C19.605 9.96121 20.3964 9.96121 20.8846 10.4494Z" fill="black"/>
<path fill-rule="evenodd" clip-rule="evenodd" d="M0.874632 12.7613C1.46518 5.59699 7.4521 0.083252 14.6407 0.083252H15.3606C22.5493 0.083252 28.5362 5.59699 29.1268 12.7613C29.444 16.6099 28.2552 20.4314 25.8108 23.4209L17.8223 33.1905C16.364 34.974 13.6374 34.974 12.1791 33.1905L4.19063 23.4209C1.7462 20.4314 0.5574 16.6099 0.874632 12.7613ZM14.6407 2.58325C8.75318 2.58325 3.84984 7.09905 3.36618 12.9667C3.10216 16.1698 4.09157 19.3503 6.126 21.8384L14.1144 31.608C14.5725 32.1682 15.4289 32.1682 15.887 31.608L23.8754 21.8384C25.9098 19.3503 26.8992 16.1698 26.6352 12.9667C26.1515 7.09905 21.2482 2.58325 15.3606 2.58325H14.6407Z" fill="black"/>
</svg>
